<svg xmlns="http://www.w3.org/2000/svg" width="40.958" height="44" viewBox="0 0 40.958 44">
  <g id="Group_13241" data-name="Group 13241" transform="translate(-46 -216)">
    <rect id="Rectangle_8034" data-name="Rectangle 8034" width="14" height="3" rx="1.5" transform="translate(59 257)" fill="#2edfc2"/>
    <g id="Group_12703" data-name="Group 12703" transform="translate(46 216)">
      <path id="Path_25364" data-name="Path 25364" d="M-206.218,244.25c.191.009.383.022.574.026.827.018,1.653.047,2.48.046,1.19,0,2.38-.033,3.57-.037a14.3,14.3,0,0,1,4.374.474,10.353,10.353,0,0,1,5.542,4.127,10.746,10.746,0,0,1,1.832,4.711,10.367,10.367,0,0,1-2.01,7.85,10.647,10.647,0,0,1-5.916,4.046,10.82,10.82,0,0,1-2.781.335c-1.223.007-2.446.016-3.669.016-.431,0-.861-.029-1.292-.04a3.112,3.112,0,0,0-2.559,1.044c-.839.958-1.769,1.826-2.679,2.713-.2.2-.406.39-.617.576a1.386,1.386,0,0,1-2.319-.872,8.015,8.015,0,0,1-.041-1.447c.013-.553.038-1.108.013-1.66a1.889,1.889,0,0,0-.887-1.568,9.353,9.353,0,0,0-.81-.494,8.51,8.51,0,0,1-2.719-2.321,10.4,10.4,0,0,1-2.247-5.173,10.525,10.525,0,0,1,2.767-8.932,10.261,10.261,0,0,1,5.824-3.2,14.4,14.4,0,0,1,2.443-.2,1.183,1.183,0,0,0,.15-.021Zm-3.348,23.612c.137-.142.268-.284.4-.421.806-.806,1.625-1.6,2.414-2.419a2.822,2.822,0,0,1,2.17-.936c.752.013,1.5.037,2.256.032,1.2-.009,2.392-.032,3.588-.061a10.957,10.957,0,0,0,2.406-.279,8.49,8.49,0,0,0,4.267-2.517,8.644,8.644,0,0,0,2.372-7.528,8.9,8.9,0,0,0-3.018-5.487,8.47,8.47,0,0,0-5.238-2.1c-.808-.043-1.617-.063-2.426-.072q-1.874-.021-3.748-.01c-1.192.006-2.384.028-3.576.042a11.665,11.665,0,0,0-2.008.17,7.873,7.873,0,0,0-4.4,2.334,9.879,9.879,0,0,0-2.342,4.312,7.786,7.786,0,0,0,.032,4.513,9.174,9.174,0,0,0,5.019,5.725,3.33,3.33,0,0,1,.856.539,2.136,2.136,0,0,1,.617,1.792c-.025.694-.021,1.388-.027,2.082a.141.141,0,0,0,.051.105C-209.793,267.747-209.687,267.8-209.566,267.862Z" transform="translate(218.497 -244.25)" fill="#34dfc3"/>
      <path id="Path_25365" data-name="Path 25365" d="M-31.64,389.791a2.061,2.061,0,0,1-1.185-.868,8.484,8.484,0,0,0-1.533-1.593,5.638,5.638,0,0,0-3.49-1.158c-.461,0-.922.044-1.383.066a9.747,9.747,0,0,1-1.8-.093,12.411,12.411,0,0,1-2.44-.546,7.36,7.36,0,0,1-3.59-2.783c-.214-.3-.406-.617-.595-.934a1.156,1.156,0,0,1-.2-.7.816.816,0,0,1,.114-.356.845.845,0,0,1,1.381-.132,2.565,2.565,0,0,1,.313.423,6.872,6.872,0,0,0,2.628,2.551,6.861,6.861,0,0,0,2.718.781c.538.042,1.08.039,1.62.033.645-.008,1.29-.049,1.936-.063a5.712,5.712,0,0,1,2.886.593,4.2,4.2,0,0,1,1.5,1.329.977.977,0,0,0,.677.433c.028-.2.055-.4.084-.6.051-.348.092-.7.159-1.042a1.524,1.524,0,0,1,.772-1.066c.274-.157.561-.291.839-.442a6.2,6.2,0,0,0,3.3-4.152,6.694,6.694,0,0,0-.918-5.345,6.613,6.613,0,0,0-2.514-2.183,10.393,10.393,0,0,0-1.612-.611,2.069,2.069,0,0,1-.462-.22.729.729,0,0,1-.31-.9.807.807,0,0,1,.784-.644,1.162,1.162,0,0,1,.4.058c.739.28,1.484.548,2.208.865a6.921,6.921,0,0,1,2.351,1.8,7.862,7.862,0,0,1,1.988,4.236,8.184,8.184,0,0,1-2.186,6.974,8.408,8.408,0,0,1-1.558,1.3,3.656,3.656,0,0,0-.875.776,2.429,2.429,0,0,0-.453,1.782,7.855,7.855,0,0,1,.041,1.053,1.374,1.374,0,0,1-1.182,1.353.764.764,0,0,0-.085.028Z" transform="translate(65.89 -356.332)" fill="#34dfc3"/>
      <path id="Path_25366" data-name="Path 25366" d="M-122.654,304.59c-.231-.254-.434-.484-.644-.708-.472-.5-.947-1-1.42-1.507-.069-.074-.132-.153-.2-.23a1.04,1.04,0,0,1-.05-1.274.332.332,0,0,1,.224-.154,4.57,4.57,0,0,1,.773.018.55.55,0,0,1,.269.176c.475.465.945.934,1.415,1.4l2.412,2.4.009.009a1.073,1.073,0,0,1-.024,1.662c-.5.507-1.008,1.008-1.514,1.51q-1.1,1.087-2.2,2.17a1.27,1.27,0,0,1-.8.421.867.867,0,0,1-.781-.433.7.7,0,0,1-.048-.772,3.45,3.45,0,0,1,.67-.809c.534-.549,1.073-1.092,1.609-1.638.018-.018.034-.039.049-.057-.172-.387-.172-.387-.58-.387H-130c-.307,0-.616.012-.922-.007a1.159,1.159,0,0,1-1.021-.81.308.308,0,0,1-.013-.179.944.944,0,0,1,.608-.645,4.747,4.747,0,0,1,1.41-.157q3.558-.005,7.116-.005Z" transform="translate(141.106 -294.744)" fill="#34dfc3"/>
    </g>
  </g>
</svg>
