<svg xmlns="http://www.w3.org/2000/svg" width="43.317" height="48.905" viewBox="0 0 43.317 48.905">
  <g id="Group_13239" data-name="Group 13239" transform="translate(-165.842 -246.095)">
    <rect id="Rectangle_8032" data-name="Rectangle 8032" width="14" height="3" rx="1.5" transform="translate(181 292)" fill="#a3c1f8"/>
    <g id="Group_11716" data-name="Group 11716" transform="translate(165.842 246.095)">
      <path id="Path_25367" data-name="Path 25367" d="M482.768-119.75l.156.041a.961.961,0,0,1,.737.934c0,.363,0,.726,0,1.089a.171.171,0,0,0,.009.028c.177.037.362.07.545.114a5.024,5.024,0,0,1,2.354,1.173,3.709,3.709,0,0,1,.56.672.883.883,0,0,1-.073,1.066.993.993,0,0,1-1.089.375,1.129,1.129,0,0,1-.428-.292,3.661,3.661,0,0,0-1.871-1.071c0,.052-.008.1-.008.139,0,1.377,0,2.754,0,4.131,0,.106.034.143.132.183a16.55,16.55,0,0,1,1.613.686,3.618,3.618,0,0,1,2.007,3.075,3.588,3.588,0,0,1-.987,2.9,4.622,4.622,0,0,1-2.322,1.284c-.14.034-.282.061-.441.095v.143q0,.823,0,1.647a.971.971,0,0,1-.992,1,.978.978,0,0,1-1.013-1c0-.535,0-1.07,0-1.605v-.125c-.426-.1-.838-.18-1.235-.3a6.8,6.8,0,0,1-2.631-1.655,1.032,1.032,0,0,1-.384-.924,1.025,1.025,0,0,1,.7-.867.915.915,0,0,1,1.023.246,5.671,5.671,0,0,0,1.091.907,4.256,4.256,0,0,0,1.439.548v-.161c0-1.419,0-2.838,0-4.257a.179.179,0,0,0-.147-.2,8.219,8.219,0,0,1-2.265-1.149,3.207,3.207,0,0,1-1.276-2.28,3.862,3.862,0,0,1,.257-2.1,3.838,3.838,0,0,1,2.17-2.018c.4-.159.821-.255,1.258-.387,0-.232,0-.5,0-.769a3.5,3.5,0,0,1,.008-.4.984.984,0,0,1,.861-.875.472.472,0,0,0,.076-.025Zm.9,10.756v3.851c.239-.1.468-.179.678-.291a1.684,1.684,0,0,0,.817-2.364A2.992,2.992,0,0,0,483.669-108.994ZM481.65-115.6a.593.593,0,0,0-.085.01,2.607,2.607,0,0,0-1,.5,1.66,1.66,0,0,0-.3,2.2,3.483,3.483,0,0,0,1.389.969Z" transform="translate(-461.01 119.75)" fill="#9fb4dc"/>
      <path id="Path_25368" data-name="Path 25368" d="M333.863-67.986v-.137c0-.991,0-1.982,0-2.972a.162.162,0,0,0-.133-.184,6.823,6.823,0,0,1-1.379-.66,2.6,2.6,0,0,1-1.27-1.965,2.873,2.873,0,0,1,.7-2.421,3.407,3.407,0,0,1,1.724-1c.112-.028.226-.051.359-.08,0-.158,0-.319,0-.48,0-.1,0-.2,0-.307a.852.852,0,0,1,.879-.81.821.821,0,0,1,.843.807c.012.255,0,.511,0,.754.327.1.646.175.955.284a3.3,3.3,0,0,1,1.445.963,1.743,1.743,0,0,1,.242.355.8.8,0,0,1-.2.965.837.837,0,0,1-.99.149.877.877,0,0,1-.212-.178,2.52,2.52,0,0,0-1.152-.728c-.025-.008-.052-.012-.083-.019v3.088c.391.169.783.317,1.154.5a2.81,2.81,0,0,1,1.587,1.939,2.886,2.886,0,0,1-.7,2.806,3.645,3.645,0,0,1-1.889,1.011l-.154.036c0,.419,0,.833,0,1.246a.848.848,0,0,1-.591.839.858.858,0,0,1-1.137-.814c-.008-.363,0-.726,0-1.088v-.155a4.325,4.325,0,0,1-1.9-.7,10.216,10.216,0,0,1-1.03-.828.844.844,0,0,1,0-1.273.842.842,0,0,1,1.25.055,3.279,3.279,0,0,0,1.54.962C333.763-68.008,333.807-68,333.863-67.986Zm1.734-2.628v2.581a1.815,1.815,0,0,0,.659-.359,1.1,1.1,0,0,0,.378-1.127C336.526-70.1,336.071-70.346,335.6-70.614Zm-1.738-5.054c-.19.1-.361.167-.516.264a1.069,1.069,0,0,0-.489.619,1.3,1.3,0,0,0,1.005,1.6Z" transform="translate(-330.641 83.55)" fill="#9fb4dc"/>
      <path id="Path_25369" data-name="Path 25369" d="M653.753-75.674v.693c0,.763,0,1.526,0,2.289a.164.164,0,0,0,.133.186,5.72,5.72,0,0,1,1.481.7,2.905,2.905,0,0,1,1.234,2.34,3.034,3.034,0,0,1-2.274,3.038c-.185.059-.375.1-.572.157,0,.422,0,.844,0,1.267a.839.839,0,0,1-.709.838.846.846,0,0,1-.982-.626,1.254,1.254,0,0,1-.03-.29c0-.385,0-.771,0-1.163-.181-.037-.354-.068-.524-.108a5.033,5.033,0,0,1-2.267-1.283,1.13,1.13,0,0,1-.406-.584.909.909,0,0,1,.467-.987.847.847,0,0,1,1.031.192,3.286,3.286,0,0,0,1.548.976c.031.009.063.017.095.023a.221.221,0,0,0,.051,0c0-.045.007-.091.007-.136,0-.982,0-1.963,0-2.945a.173.173,0,0,0-.141-.2,6.988,6.988,0,0,1-1.355-.646,2.7,2.7,0,0,1-1.319-2.387,2.945,2.945,0,0,1,2.087-2.9,4.4,4.4,0,0,1,.6-.164c.1-.021.126-.063.123-.157-.005-.209-.007-.419,0-.628a.853.853,0,0,1,.778-.84.827.827,0,0,1,.922.651,1.928,1.928,0,0,1,.019.361c0,.186,0,.371,0,.549.3.086.6.157.89.255a3.393,3.393,0,0,1,1.558,1.039.9.9,0,0,1,.254.857.879.879,0,0,1-.661.636.771.771,0,0,1-.822-.276A2.5,2.5,0,0,0,653.753-75.674Zm.005,7.608.032.043c.2-.123.418-.233.611-.371a1.007,1.007,0,0,0,.4-.6,1.4,1.4,0,0,0-1.043-1.6Zm-1.773-5.1.034-.033v-2.445a1.559,1.559,0,0,0-.722.389,1.133,1.133,0,0,0-.009,1.591A7.475,7.475,0,0,0,651.986-73.166Z" transform="translate(-613.287 83.566)" fill="#9fb4dc"/>
      <path id="Path_25370" data-name="Path 25370" d="M409.2,80.817a1.419,1.419,0,0,1,.1-.13q1.227-1.23,2.457-2.457a.858.858,0,0,1,1.331,1.068,1.047,1.047,0,0,1-.143.17q-2.012,2.014-4.026,4.027a.852.852,0,0,1-1.245.009q-2.025-2.021-4.046-4.046a.86.86,0,1,1,1.2-1.228c.031.028.059.059.089.088L407.3,80.7c.035.035.072.067.131.122v-.19q0-5.08,0-10.16a.865.865,0,0,1,.7-.913.854.854,0,0,1,1.023.83c0,.4,0,.809,0,1.214v9.193Z" transform="translate(-395.244 -48.402)" fill="#9fb4dc"/>
      <path id="Path_25371" data-name="Path 25371" d="M569.81,80.783a.542.542,0,0,1,.073-.134q1.211-1.216,2.427-2.428a.871.871,0,0,1,1.186-.107.858.858,0,0,1,.163,1.175,1.443,1.443,0,0,1-.148.167l-3.957,3.957a.863.863,0,0,1-1.325,0q-2-2-4.006-4.007a.854.854,0,0,1,.364-1.438.839.839,0,0,1,.867.241q1.222,1.225,2.446,2.448a.966.966,0,0,1,.09.123l.048-.027v-.158q0-5.122,0-10.243a.8.8,0,0,1,.5-.783.817.817,0,0,1,.922.142.8.8,0,0,1,.28.559c.006.065,0,.13,0,.2q0,5.052,0,10.1v.167Z" transform="translate(-537.909 -48.352)" fill="#9fb4dc"/>
    </g>
  </g>
</svg>