<svg xmlns="http://www.w3.org/2000/svg" width="17.583" height="17.583" viewBox="0 0 17.583 17.583">
  <g id="_4._Icons_Twitter" data-name="4. Icons / Twitter" transform="translate(0)">
    <path id="_Icon_Color_2" data-name="🔹 Icon Color 2" d="M8.687,17.583H4a4,4,0,0,1-4-4V4A4,4,0,0,1,4,0h9.583a4,4,0,0,1,4,4v9.582a4,4,0,0,1-4,4h-2.41V11.568h2.074l.311-2.345H11.173v-1.5c0-.685.2-1.141,1.193-1.141H13.64v-2.1A17.345,17.345,0,0,0,11.783,4.4a2.874,2.874,0,0,0-3.1,3.1V9.223H6.608v2.344H8.687v6.015Z" transform="translate(0 0)" fill="#fff"/>
  </g>
</svg>
