<svg xmlns="http://www.w3.org/2000/svg" width="20.002" height="16.999" viewBox="0 0 20.002 16.999">
  <g id="Group_10191" data-name="Group 10191" transform="translate(-339.999 -53.001)">
    <path id="menu_icon" data-name="menu icon" d="M1,17a1,1,0,0,1-1-1v-.428a1,1,0,0,1,1-1H19a1,1,0,0,1,1,1V16a1,1,0,0,1-1,1ZM1,9.714a1,1,0,0,1-1-1V8.285a1,1,0,0,1,1-1H11.5a1,1,0,0,1,1,1v.428a1,1,0,0,1-1,1ZM1,2.428a1,1,0,0,1-1-1V1A1,1,0,0,1,1,0H19a1,1,0,0,1,1,1v.428a1,1,0,0,1-1,1Z" transform="translate(360 70) rotate(180)" fill="#fff"/>
  </g>
</svg>
