<svg xmlns="http://www.w3.org/2000/svg" width="17.889" height="17.889" viewBox="0 0 17.889 17.889">
  <g id="_4._Icons_Twitter" data-name="4. Icons / Twitter" transform="translate(0)">
    <path id="_Icon_Color" data-name="🔹 Icon Color" d="M8.945,17.889c-2.407,0-2.726-.01-3.688-.053C2,17.686.2,15.887.054,12.633.01,11.675,0,11.357,0,8.945S.01,6.212.055,5.257C.2,2,2,.2,5.258.054,6.215.01,6.533,0,8.945,0s2.734.01,3.689.055C15.89.2,17.689,2,17.836,5.258c.043.961.053,1.279.053,3.687s-.01,2.73-.054,3.689c-.147,3.254-1.946,5.053-5.2,5.2C11.671,17.879,11.353,17.889,8.945,17.889Zm0-13.537a4.593,4.593,0,1,0,4.593,4.593A4.6,4.6,0,0,0,8.945,4.352ZM13.72,3.1a1.073,1.073,0,1,0,1.072,1.074A1.076,1.076,0,0,0,13.72,3.1ZM8.945,11.926a2.982,2.982,0,1,1,2.982-2.982A2.985,2.985,0,0,1,8.945,11.926Z" transform="translate(0)" fill="#fff"/>
  </g>
</svg>