<svg xmlns="http://www.w3.org/2000/svg" width="37.292" height="44" viewBox="0 0 37.292 44">
  <g id="Group_13240" data-name="Group 13240" transform="translate(-292 -216)">
    <rect id="Rectangle_8033" data-name="Rectangle 8033" width="14" height="3" rx="1.5" transform="translate(305 257)" fill="#ffaa9b"/>
    <g id="Group_11715" data-name="Group 11715" transform="translate(292 216)">
      <path id="Path_25372" data-name="Path 25372" d="M78.29-375.35c-.02.127-.03.255-.062.379A1.66,1.66,0,0,1,77-373.714c-.107.03-.128.075-.127.174q0,1.662,0,3.324a1.688,1.688,0,0,1-1.1,1.619,1.854,1.854,0,0,1-.578.112c-.473.015-.946.013-1.419,0a1.692,1.692,0,0,1-1.625-1.68q0-1.686,0-3.373v-.132l-.023.03a5.217,5.217,0,0,1-.7-.365,1.585,1.585,0,0,1-.68-1.342q-.006-2.869,0-5.738a1.711,1.711,0,0,1,1.394-1.738l.117-.029a2.616,2.616,0,0,1-.229-2.166,2.546,2.546,0,0,1,.982-1.318,2.621,2.621,0,0,1,3.158.116,2.643,2.643,0,0,1,.6,3.368c.063.017.123.034.183.049a1.7,1.7,0,0,1,1.319,1.575.444.444,0,0,0,.02.08Zm-2.257.417c.157,0,.3-.01.446,0a.473.473,0,0,0,.525-.518c-.007-1.868,0-3.737,0-5.6a.457.457,0,0,0-.521-.52H72.536a.456.456,0,0,0-.519.522q0,2.8,0,5.593a1.132,1.132,0,0,0,.009.157.4.4,0,0,0,.321.353,6.2,6.2,0,0,0,.633.005v-4.543c0-.265.122-.421.33-.421s.326.15.326.421v4.546h1.747v-3.279c0-.449,0-.9,0-1.347a.318.318,0,0,1,.225-.323.327.327,0,0,1,.426.349q0,2.226,0,4.452Zm-.441,1.292H73.431c0,.034-.006.058-.006.082q0,1.673,0,3.346a.434.434,0,0,0,.469.457q.606,0,1.212,0a.442.442,0,0,0,.485-.49q0-1.63,0-3.261ZM73.17-384.187a1.344,1.344,0,0,0,1.333,1.339,1.351,1.351,0,0,0,1.348-1.34,1.342,1.342,0,0,0-1.343-1.341A1.335,1.335,0,0,0,73.17-384.187Z" transform="translate(-40.998 389.091)" fill="#ffaa9b"/>
      <path id="Path_25373" data-name="Path 25373" d="M-85.128-193.987c-.077-.02-.155-.038-.232-.061a1.409,1.409,0,0,1-1.018-1.366q0-3.814,0-7.629a1.414,1.414,0,0,1,1.426-1.423q2.341,0,4.682,0a1.419,1.419,0,0,1,1.423,1.428q0,3.8,0,7.6a1.412,1.412,0,0,1-1.2,1.425.291.291,0,0,0-.055.021Zm.028-1.29h4.964v-7.9H-85.1Z" transform="translate(100.873 224.447)" fill="#ffaa9b"/>
      <path id="Path_25374" data-name="Path 25374" d="M71.987-174.72c-.045-.013-.089-.028-.135-.039a1.412,1.412,0,0,1-1.1-1.386q0-2.784,0-5.567a1.409,1.409,0,0,1,1.417-1.416h4.682a1.406,1.406,0,0,1,1.428,1.329.314.314,0,0,0,.02.066v5.605a.443.443,0,0,0-.02.079,1.413,1.413,0,0,1-.943,1.245c-.1.034-.2.056-.3.084Zm.046-7.13v5.839H77v-5.839Z" transform="translate(-41.004 205.18)" fill="#ffaa9b"/>
      <path id="Path_25375" data-name="Path 25375" d="M-234.452-148.006c-.081-.021-.164-.038-.244-.063a1.415,1.415,0,0,1-1.014-1.37q0-1.322,0-2.643a1.411,1.411,0,0,1,1.46-1.46h4.62a1.407,1.407,0,0,1,1.451,1.455q0,1.316,0,2.631a1.407,1.407,0,0,1-1.195,1.429.3.3,0,0,0-.055.021Zm4.992-1.287v-2.973h-4.962v2.973Z" transform="translate(235.71 178.466)" fill="#ffaa9b"/>
      <path id="Path_25376" data-name="Path 25376" d="M-80.361-406.366l.2.051a1.713,1.713,0,0,1,1.314,1.667q0,2.869,0,5.738a1.7,1.7,0,0,1-1.332,1.7c-.019,0-.038.012-.071.023v.139q0,1.65,0,3.3a1.7,1.7,0,0,1-1.476,1.738,2.773,2.773,0,0,1-.423.017c-.388,0-.777.009-1.165,0a1.706,1.706,0,0,1-1.664-1.735q0-1.668,0-3.336c0-.091-.02-.13-.116-.156a1.686,1.686,0,0,1-1.286-1.684q0-2.851,0-5.7a1.708,1.708,0,0,1,1.368-1.721l.142-.035a2.618,2.618,0,0,1-.229-2.172,2.535,2.535,0,0,1,.976-1.309,2.607,2.607,0,0,1,3.1.064,2.547,2.547,0,0,1,.978,1.583A2.6,2.6,0,0,1-80.361-406.366Zm-.725,7.918c.166,0,.312-.011.456,0a.468.468,0,0,0,.511-.5c-.008-1.876,0-3.753,0-5.629a.449.449,0,0,0-.505-.508H-84.6a.451.451,0,0,0-.506.509v5.629c0,.032,0,.065,0,.1a.425.425,0,0,0,.35.4c.2.017.4,0,.616,0v-.151q0-2.262,0-4.525c0-.045,0-.089,0-.133a.318.318,0,0,1,.3-.3.314.314,0,0,1,.334.24.836.836,0,0,1,.018.192q0,2.263,0,4.525v.144h1.739v-.165q0-2.25,0-4.5a1.078,1.078,0,0,1,.009-.169.317.317,0,0,1,.314-.267.317.317,0,0,1,.323.27,1.1,1.1,0,0,1,.009.169q0,2.25,0,4.5Zm-2.609,1.286v.132q0,1.643,0,3.285a.437.437,0,0,0,.476.473h1.212a.434.434,0,0,0,.475-.473q0-1.649,0-3.3c0-.039,0-.077-.006-.119Zm1.07-9.2a1.352,1.352,0,0,0,1.356-1.332,1.347,1.347,0,0,0-1.325-1.349,1.35,1.35,0,0,0-1.364,1.336A1.356,1.356,0,0,0-82.626-406.362Z" transform="translate(100.872 410.325)" fill="#ffaa9b"/>
      <path id="Path_25377" data-name="Path 25377" d="M-234.31-341.767a1.745,1.745,0,0,1-.923-.5,1.645,1.645,0,0,1-.479-1.17q0-2.887,0-5.774a1.714,1.714,0,0,1,1.37-1.7c.043-.009.086-.021.143-.035a2.617,2.617,0,0,1-.21-2.223,2.54,2.54,0,0,1,.962-1.261,2.613,2.613,0,0,1,3.031.019,2.611,2.611,0,0,1,.666.7,2.584,2.584,0,0,1,.368.89,2.251,2.251,0,0,1,.016.963c-.071.312-.188.613-.285.92.095.027.216.055.334.1a1.7,1.7,0,0,1,1.136,1.6q0,2.887,0,5.774a1.681,1.681,0,0,1-1.262,1.652c-.115.03-.14.077-.14.187q.006,1.65,0,3.3a1.7,1.7,0,0,1-1.577,1.743,10.682,10.682,0,0,1-1.152.007,3.365,3.365,0,0,1-.721-.059,1.688,1.688,0,0,1-1.277-1.68q0-1.656,0-3.312Zm3.887-1.251h.457a.451.451,0,0,0,.51-.5v-5.629a.453.453,0,0,0-.516-.511h-3.943a.452.452,0,0,0-.52.518v5.6c0,.032,0,.065,0,.1a.421.421,0,0,0,.369.416c.191.018.386,0,.592,0v-.161q0-2.238,0-4.476a.97.97,0,0,1,.009-.157.319.319,0,0,1,.314-.267.318.318,0,0,1,.323.271,1.116,1.116,0,0,1,.009.169q0,2.232,0,4.464v.155h1.739v-.153q0-2.238,0-4.476a.8.8,0,0,1,.016-.18.317.317,0,0,1,.4-.236.323.323,0,0,1,.239.36q0,2.269,0,4.537Zm-2.6,1.281c0,.048-.006.087-.006.127q0,1.649,0,3.3a.432.432,0,0,0,.47.466q.606,0,1.213,0a.438.438,0,0,0,.481-.481q0-1.637,0-3.274v-.137Zm1.074-9.2a1.349,1.349,0,0,0,1.347-1.34,1.357,1.357,0,0,0-1.35-1.341,1.354,1.354,0,0,0-1.339,1.338A1.346,1.346,0,0,0-231.948-350.94Z" transform="translate(235.714 360.277)" fill="#ffaa9b"/>
    </g>
  </g>
</svg>