<svg id="_4._Icons_Twitter" data-name="4. Icons / Twitter" xmlns="http://www.w3.org/2000/svg" width="18.971" height="18.971" viewBox="0 0 18.971 18.971">
  <path id="_Icon_Color" data-name="🔹 Icon Color" d="M18.971,2.246A6.674,6.674,0,0,1,16.735,3,4.752,4.752,0,0,0,18.446.35a6.986,6.986,0,0,1-2.472,1.162A3.593,3.593,0,0,0,13.134,0C10.621,0,8.775,2.885,9.342,5.88a10.536,10.536,0,0,1-8.021-5,5.5,5.5,0,0,0,1.2,6.394,3.343,3.343,0,0,1-1.762-.6C.72,8.89,2.012,10.966,3.884,11.428a3.2,3.2,0,0,1-1.758.082,4.1,4.1,0,0,0,3.636,3.325A6.819,6.819,0,0,1,0,16.819a9.585,9.585,0,0,0,5.966,2.152c7.226,0,11.309-7.51,11.062-14.245A9.172,9.172,0,0,0,18.971,2.246Z" transform="translate(0 0)" fill="#fff"/>
</svg>
