<svg id="_4._Icons_Twitter" data-name="4. Icons / Twitter" xmlns="http://www.w3.org/2000/svg" width="29.551" height="29.551" viewBox="0 0 29.551 29.551">
  <path id="_Icon_Color" data-name="🔹 Icon Color" d="M12.386,18.19c-3.176,0-6.115-.07-7.863-.186C.447,17.731.029,15.212,0,9.095c.015-3.184.145-5.3.765-6.7S2.514.32,4.523.185C6.27.069,9.209,0,12.385,0s6.1.069,7.846.185c4.076.274,4.493,2.793,4.523,8.909-.015,3.184-.145,5.3-.765,6.7S22.239,17.87,20.231,18C18.49,18.121,15.557,18.19,12.386,18.19ZM9.282,5.053v8.084l8.252-4.049Z" transform="translate(2.476 6.064)" fill="#fff"/>
</svg>